<?xml version="1.0" standalone="no"?> <!DOCTYPE svg PUBLIC "-//W3C//DTD SVG 1.0//EN" "http://www.w3.org/TR/2001/REC-SVG-20010904/DTD/svg10.dtd" > <svg xmlns="http://www.w3.org/2000/svg" width="100%" height="100%">
<defs >
<font id="bastionkontrastaltc" horiz-adv-x="371" ><font-face
    font-family="BastionKontrastAltC"
    units-per-em="1000"
    panose-1="2 0 5 3 0 0 0 0 0 0"
    ascent="860"
    descent="-164"
    alphabetic="0" />
<missing-glyph horiz-adv-x="1000" />
<glyph unicode=" " glyph-name="space" horiz-adv-x="225" />
<glyph unicode="!" glyph-name="exclam" horiz-adv-x="301" d="M225 719V438L191 208H110L76 438V719H225ZM76 0V166H225V0H76Z" />
<glyph unicode="&quot;" glyph-name="quotedbl" horiz-adv-x="450" d="M254 719H382V465H254V719ZM68 719H196V465H68V719Z" />
<glyph unicode="#" glyph-name="numbersign" horiz-adv-x="450" d="M26 526H106L128 707H231L210 526H283L304 707H407L384 526H451V420H371L357 302H424V196H344L321 0H220L243 196H169L146 0H42L66 196H-1V302H79L93 420H26V526ZM197 420L182 302H256L270 420H197Z" />
<glyph unicode="$" glyph-name="dollar" horiz-adv-x="450" d="M26 238H175V182Q175 157 176 145T189 122T222 111Q265 111 265 178Q265 210 241 241T181 300T110 359T50 436T25 536Q25 616 69 664T187 719V784H261V719Q344 712 380 666T416 535V489H266V536Q266
597 220 597Q203 597 192 582T180 544Q180 521 198 497T243 452T302 403T361 345T407 272T425 179Q425 15 261 -12V-76H187V-12Q118 -12 72 31T26 157V238Z" />
<glyph unicode="%" glyph-name="percent" horiz-adv-x="800" d="M565 98Q565 67 591 67Q616 67 616 98V257Q616 288 591 288Q565 288 565 257V98ZM84 609Q84 719 211 719Q336 719 336 609V450Q336 340 211 340Q84 340 84 450V609ZM184 450Q184 419 211 419Q235
419 235 450V609Q235 640 211 640Q184 640 184 609V450ZM454 731H537L349 -23H263L454 731ZM464 257Q464 367 591 367Q716 367 716 257V98Q716 -12 591 -12Q464 -12 464 98V257Z" />
<glyph unicode="&amp;" glyph-name="ampersand" horiz-adv-x="600" d="M559 400Q545 240 472 153L556 0H397L374 44Q316 -12 227 -12Q177 -12 140 6T85 47T56 104T43 159T41 203Q41 256 77 318T174 412Q154 445 145 462T124 511T113 569Q113 640 159 679T278 719Q351
719 397 685T443 580Q443 528 414 479T338 396L401 283Q403 281 410 302T425 354T432 400H559ZM234 302Q207 272 196 250T185 195Q185 165 204 141T253 116Q285 116 319 144L234 302ZM247 576Q247 568 251 556T259 536T271 516T279 501Q320 540 320 572Q320 613
284 613Q247 613 247 576Z" />
<glyph unicode="&apos;" glyph-name="quotesingle" horiz-adv-x="250" d="M61 719H189V465H61V719Z" />
<glyph unicode="(" glyph-name="parenleft" horiz-adv-x="300" d="M265 640Q247 640 235 634T216 619T206 594T203 566T202 533V76Q202 54 203 42T209 13T229 -12T265 -20V-99Q174 -84 119 -32T64 109V500Q64 594 117 653T265 719V640Z" />
<glyph unicode=")" glyph-name="parenright" horiz-adv-x="300" d="M35 -20Q57 -20 70 -12T89 13T96 42T97 76V533Q97 560 96 574T90 606T71 632T35 640V719Q128 713 182 654T236 500V109Q236 21 181 -31T35 -99V-20Z" />
<glyph unicode="*" glyph-name="asterisk" horiz-adv-x="350" d="M208 516L215 422H141L144 516L73 463L35 521L117 571L37 621L70 682L144 628L139 719H214L208 629L283 681L315 621L231 571L315 522L279 465L208 516Z" />
<glyph unicode="+" glyph-name="plus" horiz-adv-x="540" d="M206 520H334V356H498V229H334V65H206V229H42V356H206V520Z" />
<glyph unicode="," glyph-name="comma" horiz-adv-x="225" d="M38 166H187V11Q187 -20 163 -59T121 -103H38Q95 -53 112 0H38V166Z" />
<glyph unicode="-" glyph-name="hyphenminus" horiz-adv-x="300" d="M31 371H268V238H31V371Z" />
<glyph unicode="." glyph-name="period" horiz-adv-x="225" d="M38 0V166H187V0H38Z" />
<glyph unicode="/" glyph-name="slash" horiz-adv-x="250" d="M159 731H287L91 -12H-37L159 731Z" />
<glyph unicode="0" glyph-name="zero" horiz-adv-x="450" d="M27 539Q27 623 78 671T225 719T371 671T423 539V168Q423 84 372 36T225 -12T79 36T27 168V539ZM187 157Q187 111 225 111T263 157V551Q263 597 225 597T187 551V157Z" />
<glyph unicode="1" glyph-name="one" horiz-adv-x="450" d="M46 632Q90 634 128 652T179 707H314V0H159V531H46V632Z" />
<glyph unicode="2" glyph-name="two" horiz-adv-x="450" d="M33 515Q33 619 82 669T237 719Q330 719 380 672T431 531Q431 478 415 436T372 363T316 306T254 244T200 173Q193 162 191 153Q185 141 184 133H426V0H19V44Q19 129 45 193T108 296T182 368T245 441T271
530Q271 597 227 597Q200 597 192 579T183 530V459H33V515Z" />
<glyph unicode="3" glyph-name="three" horiz-adv-x="450" d="M22 238H176V165Q176 111 220 111Q263 111 263 165V215Q263 277 244 297T161 318V435H189Q216 435 236 449T257 490V548Q257 597 220 597Q179 597 179 544V499H25Q19 607 64 663T222 719Q316 719 367
678T418 540Q418 481 402 444T338 383Q373 372 392 345T417 289T423 218Q423 100 380 44T222 -12Q127 -12 75 33T22 171V238Z" />
<glyph unicode="4" glyph-name="four" horiz-adv-x="450" d="M17 283Q58 370 86 488T121 707H287Q277 598 228 482T108 262H224V359Q292 453 319 565H379V262H433V134H379V0H224V134H17V283Z" />
<glyph unicode="5" glyph-name="five" horiz-adv-x="450" d="M38 707H400V574H171V468H173Q210 496 257 496Q423 496 423 323V223Q423 106 378 47T222 -12Q127 -12 75 33T22 171V233H176V165Q176 111 220 111Q263 111 263 165V319Q263 373 220 373Q176 373 176
319H38V707Z" />
<glyph unicode="6" glyph-name="six" horiz-adv-x="450" d="M27 539Q27 623 78 671T225 719Q412 719 412 537H268Q268 597 225 597Q201 597 192 584T182 537V457L184 455Q203 480 221 488T274 496Q357 496 390 447T423 308V168Q423 84 372 36T225 -12T79 35T27
168V539ZM187 157Q187 130 197 121T225 111Q263 111 263 157V328Q263 373 225 373T187 328V157Z" />
<glyph unicode="7" glyph-name="seven" horiz-adv-x="450" d="M11 707H423V588Q401 551 384 518Q337 427 306 308T267 79Q266 66 265 40T262 0H91Q92 38 97 76Q118 267 235 508L268 574H11V707Z" />
<glyph unicode="8" glyph-name="eight" horiz-adv-x="450" d="M27 228Q27 255 28 270T37 310T61 351T108 380Q68 396 50 427T32 490V539Q32 562 33 577T44 623T73 671T131 704T225 719T319 704T376 671T405 623T417 578T418 539V490Q418 459 399 428T339 380Q393
361 408 327T423 228V168Q423 84 372 36T225 -12T79 36T27 168V228ZM187 157Q187 111 225 111T263 157V271Q263 317 225 317T187 271V157ZM187 485Q187 439 225 439T263 485V551Q263 597 225 597T187 551V485Z" />
<glyph unicode="9" glyph-name="nine" horiz-adv-x="450" d="M423 168Q423 84 372 36T225 -12Q38 -12 38 170H182Q182 111 225 111T268 170V250L266 252Q247 227 228 219T176 211Q93 211 60 260T27 400V539Q27 623 78 671T225 719T371 671T423 539V168ZM263 551Q263
597 225 597T187 551V380Q187 334 225 334T263 380V551Z" />
<glyph unicode=":" glyph-name="colon" horiz-adv-x="225" d="M38 523H187V357H38V523ZM38 166H187V0H38V166Z" />
<glyph unicode=";" glyph-name="semicolon" horiz-adv-x="225" d="M38 166H187V11Q187 -20 163 -59T121 -103H38Q95 -53 112 0H38V166ZM38 523H187V357H38V523Z" />
<glyph unicode="&lt;" glyph-name="less" horiz-adv-x="540" d="M42 229V356L498 527V389L222 293V292L498 196V58L42 229Z" />
<glyph unicode="=" glyph-name="equal" horiz-adv-x="540" d="M498 340H42V468H498V340ZM498 117H42V245H498V117Z" />
<glyph unicode="&gt;" glyph-name="greater" horiz-adv-x="540" d="M42 196L318 292V293L42 389V527L498 356V229L42 58V196Z" />
<glyph unicode="?" glyph-name="question" horiz-adv-x="450" d="M127 208V248Q127 290 142 326T178 389T222 440T259 492T274 551Q274 625 223 625Q173 625 173 541V491H34V552Q34 632 86 681T229 731Q323 731 375 688T428 557Q428 513 409 476T363 410T309 355T263
290T244 208H127ZM110 166H259V0H110V166Z" />
<glyph unicode="@" glyph-name="at" horiz-adv-x="792" d="M486 359Q486 396 464 419T404 443Q362 443 334 411T306 337Q306 301 326 277T382 252Q427 252 456 283T486 359ZM521 538H615L571 301Q565 274 565 267Q565 247 589 247Q620 247 645 281T670 398Q670
514 599 577T410 641Q287 641 213 562T138 358Q138 229 218 154T427 78Q534 78 615 139H713Q604 -12 418 -12Q257 -12 144 93T31 358Q31 517 142 624T413 731Q552 731 656 647T760 429Q760 364 740 312T691 228T626 176T562 148T514 140Q454 140 452 190H449Q412
140 354 140Q289 140 239 193T189 320Q189 412 245 480T390 549Q469 549 512 490L521 538Z" />
<glyph unicode="A" glyph-name="A" horiz-adv-x="500" d="M139 719H359L494 0H320L305 128H189L172 0H6L139 719ZM206 256H289L250 607H248L206 256Z" />
<glyph unicode="B" glyph-name="B" horiz-adv-x="500" d="M37 719H266Q359 719 402 680T445 550Q445 518 442 495T430 448T403 408T355 381V379Q413 368 438 327T463 213Q463 0 272 0H37V719ZM202 122H237Q276 122 287 142T298 220Q298 266 287 292T240 318H202V122ZM202
435H233Q268 435 279 456T291 518Q291 559 280 578T239 597H202V435Z" />
<glyph unicode="C" glyph-name="C" horiz-adv-x="500" d="M37 523Q37 625 95 678T250 731T404 678T463 523V456H298V537Q298 550 297 558T292 579T278 597T250 603T223 597T208 579T203 559T202 537V182Q202 116 250 116T298 182V287H463V196Q463 100 406 44T250
-12Q152 -12 95 44T37 196V523Z" />
<glyph unicode="D" glyph-name="D" horiz-adv-x="500" d="M202 122H229Q298 122 298 184V535Q298 597 229 597H202V122ZM37 719H283Q383 719 423 669T463 526V184Q463 93 410 47T283 0H37V719Z" />
<glyph unicode="E" glyph-name="E" horiz-adv-x="450" d="M37 719H405V580H202V437H380V299H202V139H413V0H37V719Z" />
<glyph unicode="F" glyph-name="F" horiz-adv-x="400" d="M37 719H382V580H202V437H364V299H202V0H37V719Z" />
<glyph unicode="G" glyph-name="G" horiz-adv-x="500" d="M37 523Q37 625 95 678T250 731Q345 731 404 690T463 554V474H306V546Q306 603 254 603Q225 603 214 582T202 537V182Q202 116 250 116Q303 116 303 170V263H245V396H463V0H319V58H317Q273 -12 189 -12Q37
-12 37 196V523Z" />
<glyph unicode="H" glyph-name="H" horiz-adv-x="500" d="M37 719H202V450H298V719H463V0H298V306H202V0H37V719Z" />
<glyph unicode="I" glyph-name="I" horiz-adv-x="250" d="M42 719H208V0H42V719Z" />
<glyph unicode="J" glyph-name="J" horiz-adv-x="450" d="M413 179Q413 81 364 35T213 -12Q22 -12 22 179V284H182V162Q182 148 183 140T192 124T213 116Q247 116 247 163V719H413V179Z" />
<glyph unicode="K" glyph-name="K" horiz-adv-x="500" d="M37 719H197V425H200L310 719H485L347 421L486 0H310L236 257L197 198V0H37V719Z" />
<glyph unicode="L" glyph-name="L" horiz-adv-x="400" d="M37 719H202V139H382V0H37V719Z" />
<glyph unicode="M" glyph-name="M" horiz-adv-x="700" d="M41 719H302L349 363H351L398 719H659V0H499V559H497L404 0H296L203 559H202V0H41V719Z" />
<glyph unicode="N" glyph-name="N" horiz-adv-x="550" d="M37 719H218L351 295H353V719H513V0H333L199 445H197V0H37V719Z" />
<glyph unicode="O" glyph-name="O" horiz-adv-x="500" d="M202 182Q202 116 250 116T298 182V537Q298 550 297 558T292 579T278 597T250 603T223 597T208 579T203 559T202 537V182ZM37 523Q37 625 95 678T250 731T404 678T463 523V196Q463 100 406 44T250 -12Q152
-12 95 44T37 196V523Z" />
<glyph unicode="P" glyph-name="P" horiz-adv-x="500" d="M202 413H244Q282 413 293 432T305 504Q305 536 301 554T283 580T259 589T221 591H202V413ZM37 719H214Q287 719 331 711T410 680T457 614T471 500Q471 456 464 422T440 354T386 303T296 285H202V0H37V719Z" />
<glyph unicode="Q" glyph-name="Q" horiz-adv-x="500" d="M202 182Q202 116 250 116T298 182V537Q298 550 297 558T292 579T278 597T250 603T223 597T208 579T203 559T202 537V182ZM37 523Q37 625 95 678T250 731T404 678T463 523V196Q463 77 370 18L434 -85L300
-99Q296 -91 251 -12Q152 -12 95 44T37 196V523Z" />
<glyph unicode="R" glyph-name="R" horiz-adv-x="500" d="M37 719H256Q368 719 416 680T465 545Q465 474 446 436T365 379V377Q410 368 436 338T462 263V136Q462 133 462 120T462 102T462 85T462 67T464 51T466 35T469 22T473 9T479 0H315Q296 23 296 136V251Q296
282 282 296T233 310H202V0H37V719ZM202 433H243Q263 433 275 439T293 459T299 483T300 517Q300 541 299 552T292 575T273 592T235 597H202V433Z" />
<glyph unicode="S" glyph-name="S" horiz-adv-x="500" d="M191 244V191Q191 116 247 116Q274 116 289 131T304 172Q304 187 298 202T285 228T262 254T236 276T205 301T173 325Q170 328 154 340T133 356T115 371T97 388T82 405T67 425T56 446T47 471T43 498T40
529Q40 731 251 731Q356 731 407 684T458 550V485H303V524Q303 603 251 603Q225 603 210 589T194 549Q194 537 201 524T224 495T254 468T293 437T332 406Q335 403 362 382T397 354T423 325T449 285T463 237T470 172Q470 143 459 114T423 55T353 7T245 -12Q187 -12
143 5T76 49T42 106T31 166V244H191Z" />
<glyph unicode="T" glyph-name="T" horiz-adv-x="400" d="M10 719H390V580H283V0H117V580H10V719Z" />
<glyph unicode="U" glyph-name="U" horiz-adv-x="500" d="M37 719H202V194Q202 175 203 166T208 144T222 127T250 121T277 126T292 144T297 165T298 194V719H463V196Q463 100 406 44T250 -12Q152 -12 95 44T37 196V719Z" />
<glyph unicode="V" glyph-name="V" horiz-adv-x="450" d="M6 719H175L220 208H222L277 719H444L321 0H116L6 719Z" />
<glyph unicode="W" glyph-name="W" horiz-adv-x="750" d="M13 719H184L242 208H244L297 719H458L508 208H510L570 719H736L610 0H426L377 443H375L320 0H136L13 719Z" />
<glyph unicode="X" glyph-name="X" horiz-adv-x="500" d="M148 388L17 719H195L252 515H254L311 719H483L351 382L491 0H318L247 232H246L181 0H9L148 388Z" />
<glyph unicode="Y" glyph-name="Y" horiz-adv-x="450" d="M7 719H178L224 476H226L274 719H443L308 296V0H142V284L7 719Z" />
<glyph unicode="Z" glyph-name="Z" horiz-adv-x="450" d="M26 719H434V585L199 139H434V0H16V134L249 580H26V719Z" />
<glyph unicode="[" glyph-name="bracketleft" horiz-adv-x="300" d="M70 719H272V629H209V-9H272V-99H70V719Z" />
<glyph unicode="\" glyph-name="backslash" horiz-adv-x="250" d="M287 -12H159L-37 731H91L287 -12Z" />
<glyph unicode="]" glyph-name="bracketright" horiz-adv-x="300" d="M28 -99V-9H91V629H28V719H229V-99H28Z" />
<glyph unicode="^" glyph-name="asciicircum" horiz-adv-x="540" d="M42 379L188 707H352L498 379H354L270 593L185 379H42Z" />
<glyph unicode="_" glyph-name="underscore" horiz-adv-x="450" d="M0 -112V-67H450V-112H0Z" />
<glyph unicode="`" glyph-name="grave" horiz-adv-x="250" d="M145 749L184 626H101L3 749H145Z" />
<glyph unicode="a" glyph-name="a" horiz-adv-x="450" d="M415 0H273V44H271Q253 18 224 3T161 -12T105 -2T68 23T47 62T37 109T35 164Q35 237 66 273T152 333Q158 336 179 344T208 356T229 369T249 385T260 405T265 433Q265 457 258 469T229 481Q190 481 190
441V394H46V446Q46 509 96 548T228 587Q330 587 372 545T415 407V0ZM265 289L222 257Q195 238 195 206V130Q195 84 229 84Q265 84 265 134V289Z" />
<glyph unicode="b" glyph-name="b" horiz-adv-x="450" d="M35 719H190V523H192Q225 587 302 587Q415 587 415 441V160Q415 79 385 34T300 -12Q222 -12 192 58H190V0H35V719ZM190 199Q190 178 190 167T194 138T206 113T229 105Q260 105 260 143V435Q260 451 251
460T229 470Q190 470 190 397V199Z" />
<glyph unicode="c" glyph-name="c" horiz-adv-x="450" d="M35 423Q35 451 43 477T71 530T130 571T225 587T319 572T378 530T406 478T415 423V362H260V434Q260 448 259 456T250 472T225 481T201 473T191 456T190 434V141Q190 127 191 119T200 103T225 94T249 102T259
119T260 141V245H415V152Q415 124 407 98T379 45T320 4T225 -12T131 3T72 45T44 97T35 152V423Z" />
<glyph unicode="d" glyph-name="d" horiz-adv-x="450" d="M415 0H260V58H258Q228 -12 150 -12Q95 -12 65 33T35 160V441Q35 587 148 587Q225 587 258 523H260V719H415V0ZM260 397Q260 470 220 470Q208 470 199 461T190 435V143Q190 105 220 105Q234 105 243 113T255
138T259 166T260 199V397Z" />
<glyph unicode="e" glyph-name="e" horiz-adv-x="450" d="M35 423Q35 451 43 477T71 530T130 571T225 587T319 572T378 530T406 478T415 423V265H190V141Q190 127 191 119T200 103T225 94T249 102T259 119T260 141V213H415V152Q415 124 407 98T379 45T320 4T225
-12T131 3T72 45T44 97T35 152V423ZM190 371H260V434Q260 448 259 456T250 472T225 481T201 473T191 456T190 434V371Z" />
<glyph unicode="f" glyph-name="f" horiz-adv-x="250" d="M10 569H47V610Q47 647 56 670T87 703T128 716T182 719H240V618H225Q196 618 196 589V569H240V457H202V0H47V457H10V569Z" />
<glyph unicode="g" glyph-name="g" horiz-adv-x="450" d="M415 67Q415 -28 371 -66T227 -104Q57 -104 43 18H193Q193 -3 202 -12Q209 -19 227 -19Q261 -19 261 21V122L259 124Q247 91 219 74T153 56Q102 56 69 93T35 193V406Q35 443 39 471T56 528T94 571T158
587Q198 587 221 568T263 511H265V575H415V67ZM190 210Q190 167 221 167Q260 167 260 249V399Q260 436 248 453T221 470Q190 470 190 427V210Z" />
<glyph unicode="h" glyph-name="h" horiz-adv-x="450" d="M35 719H190V522H192Q232 587 304 587Q358 587 386 553T415 463V0H260V393Q260 408 259 417T250 437T225 448Q190 448 190 393V0H35V719Z" />
<glyph unicode="i" glyph-name="i" horiz-adv-x="250" d="M48 575H202V0H48V575ZM48 719H202V613H48V719Z" />
<glyph unicode="j" glyph-name="j" horiz-adv-x="250" d="M48 575H202V59Q202 22 198 -3T182 -51T144 -87T79 -99H4V9Q12 7 18 7Q48 7 48 41V575ZM48 719H202V613H48V719Z" />
<glyph unicode="k" glyph-name="k" horiz-adv-x="450" d="M194 316L279 575H437L347 323L440 0H282L194 316ZM35 719H190V0H35V719Z" />
<glyph unicode="l" glyph-name="l" horiz-adv-x="250" d="M48 719H202V0H48V719Z" />
<glyph unicode="m" glyph-name="m" horiz-adv-x="700" d="M42 575H192V504H193Q217 547 243 567T314 587Q404 587 421 504Q447 549 471 568T544 587Q599 587 628 553T658 463V0H503V386Q503 448 465 448T427 386V0H273V386Q273 448 235 448T197 386V0H42V575Z" />
<glyph unicode="n" glyph-name="n" horiz-adv-x="450" d="M35 575H184V511H186Q208 550 235 568T304 587Q358 587 386 553T415 463V0H260V393Q260 408 259 417T250 437T225 448Q190 448 190 393V0H35V575Z" />
<glyph unicode="o" glyph-name="o" horiz-adv-x="450" d="M35 423Q35 451 43 477T71 530T130 571T225 587T319 572T378 530T406 478T415 423V152Q415 124 407 98T379 45T320 4T225 -12T131 3T72 45T44 97T35 152V423ZM190 141Q190 127 191 119T200 103T225 94T249
102T259 119T260 141V434Q260 448 259 456T250 472T225 481T201 473T191 456T190 434V141Z" />
<glyph unicode="p" glyph-name="p" horiz-adv-x="450" d="M35 575H190V523H192Q225 587 302 587Q415 587 415 441V160Q415 79 385 34T300 -12Q222 -12 192 58H190V-99H35V575ZM190 199Q190 178 190 167T194 138T206 113T229 105Q260 105 260 143V435Q260 451 251
460T229 470Q190 470 190 397V199Z" />
<glyph unicode="q" glyph-name="q" horiz-adv-x="450" d="M415 -99H260V58H258Q228 -12 150 -12Q95 -12 65 33T35 160V441Q35 587 148 587Q225 587 258 523H260V575H415V-99ZM260 397Q260 470 220 470Q208 470 199 461T190 435V143Q190 105 220 105Q234 105 243
113T255 138T259 166T260 199V397Z" />
<glyph unicode="r" glyph-name="r" horiz-adv-x="300" d="M35 575H182V473H184Q210 538 227 558Q253 587 294 587V400H258Q190 400 190 327V0H35V575Z" />
<glyph unicode="s" glyph-name="s" horiz-adv-x="400" d="M22 181H160V146Q160 94 200 94Q234 94 234 137Q234 150 229 162T212 186T190 206T160 228T130 250Q99 274 80 293T44 347T27 421Q27 501 74 544T200 587Q372 587 372 436V405H233V436Q233 481 200 481Q166
481 166 442Q166 426 177 410T199 383T236 355T272 328Q329 281 347 256Q378 213 378 157Q378 138 376 121T364 78T336 34T283 2T200 -12Q102 -12 62 27T22 143V181Z" />
<glyph unicode="t" glyph-name="t" horiz-adv-x="250" d="M47 457H8V569H47V694H202V569H240V457H202V149Q202 105 222 105H242V-12H167Q109 -12 78 9T47 92V457Z" />
<glyph unicode="u" glyph-name="u" horiz-adv-x="450" d="M415 0H265V64H264Q242 25 215 7T146 -12Q92 -12 64 22T35 112V575H190V182Q190 167 191 158T200 138T225 127Q260 127 260 182V575H415V0Z" />
<glyph unicode="v" glyph-name="v" horiz-adv-x="400" d="M4 575H164L200 207H202L240 575H395L290 0H109L4 575Z" />
<glyph unicode="w" glyph-name="w" horiz-adv-x="650" d="M8 575H169L212 171H214L256 575H400L436 171H437L487 575H642L531 0H368L324 382H322L283 0H121L8 575Z" />
<glyph unicode="x" glyph-name="x" horiz-adv-x="450" d="M140 298L18 575H188L228 423H229L270 575H435L315 298L439 0H270L227 174H225L177 0H11L140 298Z" />
<glyph unicode="y" glyph-name="y" horiz-adv-x="400" d="M48 7H83Q109 7 109 28Q109 41 99 93L4 575H163L202 171H203L243 575H395L294 49Q276 -38 247 -68Q211 -104 120 -104H48V7Z" />
<glyph unicode="z" glyph-name="z" horiz-adv-x="400" d="M28 575H377V458L189 122H377V0H22V117L204 453H28V575Z" />
<glyph unicode="{" glyph-name="braceleft" horiz-adv-x="300" d="M202 -99Q149 -99 115 -66T81 34V198Q81 262 -4 262V357Q14 357 30 360T64 379T81 421V585Q81 652 115 685T202 719H304V629H267Q220 629 220 571V399Q220 353 188 333T116 311V310Q136 308 149
306T181 294T210 265T220 215V49Q220 -9 267 -9H304V-99H202Z" />
<glyph unicode="|" glyph-name="bar" horiz-adv-x="200" d="M36 731H164V-12H36V731Z" />
<glyph unicode="}" glyph-name="braceright" horiz-adv-x="300" d="M-4 -9H33Q81 -9 81 49V215Q81 245 91 265T120 294T151 305T184 310V311Q145 313 113 333T81 399V571Q81 629 33 629H-4V719H98Q152 719 186 686T220 585V421Q220 395 237 380T270 361T304 357V262Q220
262 220 198V34Q220 -33 186 -66T98 -99H-4V-9Z" />
<glyph unicode="~" glyph-name="asciitilde" horiz-adv-x="540" d="M478 274Q460 249 449 236T414 210T365 197Q328 197 274 227Q214 260 170 260Q125 260 94 193L62 310Q103 388 175 388Q208 388 274 359Q283 355 305 345T341 330T366 325Q383 325 399 336T423
359T445 391L478 274Z" />
</font>
</defs>
</svg>
